<?xml version="1.0" encoding="utf-8"?>
<!-- Generator: Adobe Illustrator 21.1.0, SVG Export Plug-In . SVG Version: 6.00 Build 0)  -->
<svg version="1.1" id="Layer_1" xmlns="http://www.w3.org/2000/svg" xmlns:xlink="http://www.w3.org/1999/xlink" x="0px" y="0px"
	 viewBox="0 0 241.2 270.9" style="enable-background:new 0 0 241.2 270.9;" xml:space="preserve">
<style type="text/css">
	.st0{fill:#C2051A;}
	.st1{fill:#FFFFFF;}
</style>
<title>tcat-logo</title>
<g>
	<path d="M176.5,121c-1.4,12.3-3.6,24.5-6.8,36.4l10.7-13.9c6.1,0.7,12.3,1.1,18.5,1.1c5.5-0.1,11.1-0.6,16.5-1.4l3-10.8
		c-5.4,1.8-10.9,3.1-16.5,4.1c-6.7,1.1-13.4,1.9-20.1,2.2C179.9,132.8,178.2,127,176.5,121L176.5,121z"/>
	<path d="M46.2,179.6l-13.5,26.5l-1.8-20.2l-7.8,31l11.9,5.7l-25.6-1.4l8.3-2.6l-9.4-33.3l-2.7,24.4l-5.6-27L46.2,179.6L46.2,179.6z
		 M56.2,198.4c-0.5,0.5-0.8,1.1-1.1,1.8c-0.2,0.7-0.3,1.5-0.3,2.2c0,1.5,0.5,3,1.6,4.1c1,1.1,2.5,1.7,4,1.7c0.6,0,1.2-0.1,1.7-0.4
		c0.6-0.3,1.3-0.6,1.8-1c-1-1.9-2.3-3.8-3.7-5.4C59.1,200.2,57.8,199.1,56.2,198.4L56.2,198.4z M75.8,192.6l-4.1,1.8l0.8,23.4
		l3.2,2.5l-12.3,1.5l2.1-8.5c-1.5,2.6-3.5,4.7-5.9,6.4c-2.2,1.4-4.7,2.2-7.3,2.2c-3.1,0-6.1-1.4-8-3.9c-2.2-2.7-3.4-6.2-3.3-9.7
		c0-4.9,1.2-8.9,3.5-12.1c2-3,5.3-4.7,8.8-4.7c2.5,0,5,0.7,7.1,2.1c2.2,1.6,4,3.8,5.2,6.3l-1.8-8.6L75.8,192.6L75.8,192.6z
		 M110.6,220.8l-15.6,1c1-1.1,1.8-2.3,2.4-3.6c0.5-1.2,0.8-2.5,0.8-3.8c0.1-1.5-0.4-3-1.2-4.2c-0.7-1-1.8-1.6-3-1.6
		c-1.4,0-2.7,0.6-3.5,1.7c-1,1.2-1.4,2.8-1.4,4.3c0,1.1,0.2,2.2,0.6,3.2c0.4,0.9,0.9,1.8,1.7,2.5L76,222.2l3.5-3.7l1.2-23l-4.6-2.3
		l14.6-1.5l-3.4,6.8c2-2,4.3-3.7,6.8-5.1c1.9-1.1,4.1-1.6,6.3-1.7c2.8-0.1,5.5,1,7.4,3.1c1.9,2.3,2.9,5.2,2.8,8.2
		c0,2.7-0.5,5.4-1.4,8c-1,2.8-2.4,5.4-4.2,7.8L110.6,220.8L110.6,220.8z M129.1,197.2c-1,1.1-1.5,2.5-1.5,3.9c0,1.6,0.6,3.1,1.6,4.2
		c0.9,1.1,2.2,1.8,3.7,1.8c0.7,0,1.4-0.1,2-0.4c0.7-0.4,1.4-0.8,1.9-1.4c-0.9-1.9-2.1-3.6-3.5-5.1
		C132.2,198.8,130.8,197.8,129.1,197.2L129.1,197.2z M147.9,192.3l-4.1,2.3c1.2,3.8,2.2,7.8,2.9,11.7c0.6,3.1,0.9,6.2,1,9.4
		c0,5.8-1.4,10.3-4.3,13.5c-2.9,3.2-6.9,4.8-12,4.8c-2.1,0-4.3-0.2-6.4-0.8c-2.2-0.6-4.4-1.3-6.5-2.3l-4,3.3l5.8-11.9
		c1.5,1.7,3.3,3.2,5.3,4.3c1.7,0.9,3.7,1.4,5.7,1.5c2.2,0,4.3-1,5.7-2.7c1.6-1.8,2.4-4.1,2.4-6.5c0-0.9-0.1-1.9-0.3-2.8
		c-0.2-1-0.6-1.9-1-2.8c-1.4,2.4-3.2,4.4-5.5,5.9c-2.1,1.3-4.5,1.9-7,1.9c-3.4,0.1-6.6-1.4-8.8-4c-2.4-2.7-3.7-6.3-3.5-9.9
		c-0.2-4.1,1.2-8.1,3.8-11.3c2.3-2.9,5.8-4.5,9.4-4.5c2.1,0,4.2,0.6,6.1,1.6c2.2,1.3,4.2,2.9,5.9,4.8l-2.6-6.4L147.9,192.3
		L147.9,192.3z M157.5,202c0.6,0.5,1.3,0.9,2.1,1.1c0.8,0.3,1.6,0.4,2.5,0.4c1.3,0.1,2.6-0.4,3.6-1.3c0.9-0.8,1.4-2.1,1.4-3.3
		c0-0.6-0.1-1.2-0.3-1.8c-0.2-0.5-0.5-1-0.9-1.5c-1.8,0.2-3.6,0.9-5.1,2C159.3,198.9,158.2,200.3,157.5,202L157.5,202z M185.3,222
		l-2.5-4.6c-2.3,1.5-4.8,2.7-7.4,3.5c-2.5,0.8-5.1,1.2-7.7,1.1c-5.2,0-9.3-1.3-12.4-3.9c-3.1-2.5-4.8-6.2-4.7-10.2
		c0-2.2,0.4-4.4,1.3-6.5c0.8-2,2-3.9,3.6-5.4c1.5-1.5,3.2-2.6,5.2-3.4c2.1-0.8,4.3-1.2,6.5-1.1c3.9-0.2,7.8,0.9,11.2,2.9
		c2.9,2,4.4,4.4,4.4,7.4s-1.5,5.8-4.1,7.5c-3,2.1-6.6,3.1-10.2,3c-0.9,0-1.9-0.1-2.8-0.2c-0.9-0.2-1.7-0.4-2.5-0.7
		c1.6,1.1,3.3,2,5.1,2.6c1.7,0.6,3.4,0.9,5.2,0.9c2.1,0,4.2-0.5,6-1.5c1.9-1,3.5-2.4,4.7-4.2L185.3,222L185.3,222z M209.5,220.8
		l-23.3,1.1l6.4-3.7l-0.5-32.1l-5.8-1l21.9-6.2l-5.1,39.6L209.5,220.8L209.5,220.8z M215.3,202.2c0.5,0.7,1.2,1.2,2,1.6
		c0.8,0.4,1.7,0.5,2.6,0.5c1.6,0,3.1-0.5,4.3-1.6c1.1-0.9,1.8-2.4,1.8-3.8c0-0.6-0.1-1.1-0.3-1.6s-0.5-0.9-0.9-1.3
		c-2,0.5-4,1.4-5.8,2.5C217.6,199.5,216.3,200.8,215.3,202.2L215.3,202.2z M241.3,206.6c0,1.4-0.2,2.9-0.6,4.3
		c-0.4,1.3-1,2.6-1.8,3.7c-1.5,2.3-3.6,4.1-6,5.4c-6.3,3.3-14.1,2.4-19.5-2.3c-3-2.7-4.7-6.7-4.6-10.7c-0.1-4.2,1.6-8.3,4.7-11.3
		c3.3-3,7.6-4.5,12-4.4c4.2-0.2,8.3,1.4,11.4,4.3C239.9,198.5,241.5,202.5,241.3,206.6L241.3,206.6z M107.1,249.6l-3,19.4l-1.1-7.9
		c-2.5,3-5.5,5.5-8.9,7.3c-3.1,1.7-6.6,2.5-10.2,2.5c-2.3,0-4.7-0.5-6.8-1.4c-2.2-1-4.3-2.4-5.9-4.2c-2.1-2-3.7-4.5-4.9-7.1
		c-1.1-2.6-1.7-5.3-1.7-8.1c0-3.6,0.8-7.2,2.4-10.5c1.6-3.1,4-5.8,6.9-7.7c2-1.3,4.2-2.3,6.5-3c2.4-0.7,4.9-1,7.5-1
		c2.3,0,4.6,0.4,6.8,1.2c2.2,0.8,4.2,2,5.9,3.5l1.6-4.7l2.9,15.3c-1.1-1.7-2.6-3.1-4.4-4.1c-1.7-0.9-3.5-1.4-5.4-1.4
		c-2-0.1-3.9,0.6-5.4,2c-1.4,1.4-2.1,3.3-2,5.2c0,2.2,0.9,4.3,2.5,5.7c1.7,1.6,4,2.4,6.4,2.3c1.7,0,3.3-0.3,4.9-0.8
		C103.6,251.5,105.4,250.6,107.1,249.6L107.1,249.6z M124.5,247c-0.5,0.5-0.8,1.1-1.1,1.8c-0.2,0.7-0.3,1.5-0.3,2.2
		c0,1.5,0.5,3,1.6,4.1c1,1.1,2.5,1.7,4,1.7c0.6,0,1.2-0.1,1.7-0.3c0.6-0.3,1.3-0.6,1.8-1c-1-1.9-2.3-3.8-3.7-5.4
		C127.4,248.7,126.1,247.7,124.5,247L124.5,247z M144.1,241.1L140,243l0.8,23.4l3.2,2.5l-12.4,1.6l2.1-8.5c-1.5,2.6-3.5,4.7-6,6.4
		c-2.2,1.4-4.7,2.2-7.3,2.2c-3.1,0-6.1-1.4-8-3.9c-2.2-2.7-3.4-6.2-3.3-9.7c0-4.9,1.2-8.9,3.5-12.1c2-3,5.3-4.7,8.8-4.7
		c2.5,0,5,0.7,7.1,2.1c2.2,1.6,4,3.8,5.2,6.3l-1.8-8.6L144.1,241.1L144.1,241.1z M179.3,270.7l-4.2-4.7c-1.9,1.5-3.9,2.7-6.1,3.5
		c-2.1,0.8-4.3,1.2-6.5,1.2c-3.1,0.2-6.2-1-8.5-3.1c-2.2-2.2-3.3-5.2-3.2-8.2c0-1.2,0.1-2.4,0.3-3.7c0.2-1.4,0.5-3.2,0.9-5.5
		l-3.2,0.4l-3,5.1l-1-17l3.8,3.8l5.3-0.2c0.5-1.9,1-3.6,1.6-5.3c0.5-1.7,1.1-3.4,1.8-5l-7.1-2.8l24.5-1.1l-6.9,4.4
		c-0.4,1.7-0.7,3.3-1,4.9s-0.6,3-0.8,4.5l6.4-0.3l4.4-5.4l-0.7,15.8l-4-4.6l-7,1c-0.2,1.5-0.3,2.9-0.4,4.1s-0.1,2.3-0.1,3.2
		c-0.1,1.6,0.2,3.1,1,4.5c0.8,1,2,1.5,3.2,1.4c1.5,0,3.1-0.5,4.4-1.3c1.7-1,3.1-2.2,4.4-3.6L179.3,270.7L179.3,270.7z"/>
	<path class="st0" d="M28.9,95.1c35.6,1.5,56.7,17.7,80.1,38.7c25,22.9,54.7,28.6,60.7,23.5c6.1-12.6,8.2-25.4,6.8-36.4
		c-6.4-9.4-22.4-3.3-51.6-19C90.6,82.8,63.6,84.4,28.9,95.1L28.9,95.1z"/>
	<path d="M76.2,160.1c-29.8-6.5-58.3-25.8-73.7-68.6c5.7,4.4,28.4,19.7,33.1,22c-3.3,0.6-6.4,1.7-9.4,3.3
		c11.7,22.7,34.5,34.5,51.5,38.4c2.8-9.1,6.2-21,8.9-32.9c0.5-2.1,0.9-4.1,1.3-6.2c7.3,5.5,14.3,11.3,21,17.6
		c20.3,18.6,43.8,25.9,55,25.2c3.4,8.7,6,14.5,6,14.5l7.3,4.8H134c0,0,12.8-14.6-13-20.1c-24.1-5.2-17.1,19.9-17.1,19.9H57.3
		l15.2-6.7C72.5,171.4,74,167,76.2,160.1L76.2,160.1z"/>
	<path d="M48.5,66.1l25.1-6.5v-0.8l-39.2-1.2l39.5-1.9c0.1-0.6,0.1-1.3,0.2-1.9l-31.7-8.1l32,5.5c0.7-4.8,1.8-9.5,3.4-14.1L65,0
		l35.5,19.7c14.1-2.6,29.3-1.5,44.4,3l31.2-11.6l-15.8,30c1.2,4.8,1.8,9.7,2,14.6l21.8-2.5l-21.7,5.3c0,0.6,0,1.1,0,1.7l38.9-0.3
		l-39,3c0,0.8-0.1,1.5-0.2,2.2l34.7,4l-35-1.8c-0.1,1-0.3,1.9-0.6,2.9c-1,3.1-10.9,10.6-18.2,13.2c-0.7,0.3-1.4,0.5-2.1,0.7
		c1.5,6.1,3.9,16.1,7,27.2c-8.1-2.2-15.9-5.4-23.2-9.5c-10.2-5.7-20.9-10-32.3-12.5c0.3-2.3,0.6-4.4,0.8-6
		C86.8,79.8,75.1,70,73.9,65.7c-0.3-1.2-0.4-2.4-0.3-3.6l-25,3.8L48.5,66.1z"/>
	<path class="st1" d="M111.4,59.8c-2.7,1.8-5.8,2.8-9,3c0.9-2.1,1.3-4.4,1.3-6.8c-0.1-1.3-0.3-2.7-0.7-3.9
		C106,54.4,108.8,57,111.4,59.8L111.4,59.8z"/>
	<path class="st1" d="M97.3,62c-6.2-2.4-9.8-9.4-7-17.5c2.7,1.1,5.2,2.4,7.6,4C96.6,51,96,53.8,96,56.6C96.1,58.4,96.5,60.3,97.3,62
		L97.3,62z"/>
	<path class="st1" d="M126.3,59.8c2.7,1.8,5.8,2.8,9,3c-0.9-2.1-1.3-4.4-1.3-6.8c0.1-1.3,0.3-2.7,0.7-3.9
		C131.7,54.5,128.9,57,126.3,59.8L126.3,59.8z"/>
	<path class="st1" d="M140.4,62c6.2-2.4,9.8-9.4,7-17.5c-2.7,1.1-5.2,2.4-7.6,4c1.3,2.5,1.9,5.3,1.9,8.1
		C141.5,58.4,141.1,60.3,140.4,62L140.4,62z"/>
	<path d="M91.1,97.9c0.7-0.2,1.4-0.4,2.1-0.4c3.2-0.1,5.9,2.5,5.9,5.7l0,0c0,0.2,0,0.4,0,0.6c1.5,1,2.3,2.6,2.4,4.4
		c-0.1,3.1-2.6,5.5-5.7,5.4c-0.9,0-1.7-0.2-2.5-0.6c-1.5,1.2-2.4,2.9-2.8,4.7c-0.9,5.1-0.4,13.1-0.5,13.2s-14.8-3.4-17.7-11.6
		c-3.7-10.3,5.4-15,8.9-16.4c-0.1-0.3-0.1-0.7-0.1-1c0.2-3.2,2.9-5.7,6.1-5.5C88.5,96.5,90,97,91.1,97.9L91.1,97.9z"/>
	<path d="M139.6,113.4c2-2,3.4-4.5,4.3-7.2c1.2-4.7-3-11.8-3-11.8s16.4,0.6,19.5,14.3c1.6,6.9-4.7,12.8-8.4,15.6
		c0.1,0.4,0.1,0.8,0.1,1.2c0,3.3-2.7,5.9-5.9,5.9c-1.3,0-2.6-0.4-3.6-1.2c-3.1,1.4-6.8,0-8.2-3.1c-0.1-0.1-0.1-0.3-0.2-0.4l0,0
		c-0.2-0.7-0.4-1.4-0.4-2.1v-0.1c-1.3-0.8-2.3-2.1-2.8-3.5c-1.2-3.2,0.4-6.9,3.6-8.1C136.3,112.3,138.2,112.5,139.6,113.4
		L139.6,113.4z"/>
</g>
</svg>
