<svg xmlns="http://www.w3.org/2000/svg" viewBox="0 0 241.24 270.92"><defs><style>.a,.b{fill-rule:evenodd;}.b{fill:#c2051a;}</style></defs><title>tcat-logo</title><path class="a" d="M352.82,407.6A248,248,0,0,1,346,444l10.69-13.9a152.76,152.76,0,0,0,18.47,1.1,130.16,130.16,0,0,0,16.54-1.39l3-10.75a121.79,121.79,0,0,1-16.54,4.14,169.07,169.07,0,0,1-20.12,2.21c-1.75-6-3.49-11.84-5.24-17.81Z" transform="translate(-176.37 -286.6)"/><path d="M222.52,466.19,209,492.69l-1.77-20.21-7.8,31,11.85,5.68-25.61-1.37,8.25-2.57-9.36-33.27-2.66,24.43-5.49-27.06,46.15-3.1ZM232.59,485a5.77,5.77,0,0,0-1.06,1.79,6.69,6.69,0,0,0-.33,2.2,5.74,5.74,0,0,0,1.6,4.13,5.29,5.29,0,0,0,4,1.66,4.66,4.66,0,0,0,1.74-.35,7.94,7.94,0,0,0,1.81-1,27.11,27.11,0,0,0-3.73-5.41,12.17,12.17,0,0,0-4-3Zm19.56-5.84L248,481l.84,23.44,3.21,2.46-12.3,1.55,2.1-8.53a19.18,19.18,0,0,1-5.95,6.37,13.3,13.3,0,0,1-7.34,2.16,10.06,10.06,0,0,1-8-3.9,14.59,14.59,0,0,1-3.25-9.67q0-7.34,3.49-12.09a10.57,10.57,0,0,1,8.81-4.74,12.2,12.2,0,0,1,7.09,2.11,16.22,16.22,0,0,1,5.16,6.3l-1.77-8.63,12,1.31ZM287,507.43l-15.62,1a13.24,13.24,0,0,0,2.36-3.62,9.59,9.59,0,0,0,.78-3.77,6.93,6.93,0,0,0-1.2-4.19,3.63,3.63,0,0,0-3-1.65,4.31,4.31,0,0,0-3.49,1.72,6.69,6.69,0,0,0-1.38,4.34,8.84,8.84,0,0,0,.56,3.23,6.78,6.78,0,0,0,1.68,2.5l-15.35,1.78,3.48-3.66,1.2-23-4.58-2.29L267,478.28l-3.38,6.82a30,30,0,0,1,6.84-5.06,14,14,0,0,1,6.33-1.71,9.52,9.52,0,0,1,7.42,3.06,11.66,11.66,0,0,1,2.79,8.18,24,24,0,0,1-1.42,8,30.83,30.83,0,0,1-4.19,7.82l5.61,2Zm18.49-23.66a5.77,5.77,0,0,0-1.48,3.89,6.11,6.11,0,0,0,1.62,4.21,4.85,4.85,0,0,0,3.68,1.8,4.72,4.72,0,0,0,2-.43,7.57,7.57,0,0,0,1.94-1.39,21.23,21.23,0,0,0-3.49-5.14,12.13,12.13,0,0,0-4.25-2.94Zm18.78-4.87-4.1,2.3a108.18,108.18,0,0,1,2.9,11.72,52.29,52.29,0,0,1,1,9.38q0,8.7-4.29,13.52t-12,4.82a27.15,27.15,0,0,1-6.38-.75,33.57,33.57,0,0,1-6.5-2.35l-4,3.27,5.78-11.91a18.78,18.78,0,0,0,5.25,4.27,12.08,12.08,0,0,0,5.69,1.45,7.39,7.39,0,0,0,5.73-2.74,9.5,9.5,0,0,0,2.4-6.48,11.9,11.9,0,0,0-.32-2.81,13.48,13.48,0,0,0-1-2.75,17.77,17.77,0,0,1-5.51,5.87,13,13,0,0,1-7,1.87,11.32,11.32,0,0,1-8.81-4,14.4,14.4,0,0,1-3.55-9.92,16.94,16.94,0,0,1,3.75-11.28,11.78,11.78,0,0,1,9.42-4.46,12.85,12.85,0,0,1,6.11,1.59,21.91,21.91,0,0,1,5.86,4.81l-2.58-6.4,12.19,1Zm9.56,9.74a6.8,6.8,0,0,0,2.1,1.13,7.48,7.48,0,0,0,2.46.41A5.12,5.12,0,0,0,342,488.9a4.32,4.32,0,0,0,1.39-3.31,5.29,5.29,0,0,0-.28-1.76,4.93,4.93,0,0,0-.87-1.49,11,11,0,0,0-5.1,2,10.64,10.64,0,0,0-3.31,4.28Zm27.83,19.92-2.52-4.64a31.1,31.1,0,0,1-7.43,3.49,26,26,0,0,1-7.69,1.15q-7.74,0-12.4-3.85a12.55,12.55,0,0,1-4.66-10.18,17,17,0,0,1,1.27-6.47,16.34,16.34,0,0,1,3.6-5.44,14.85,14.85,0,0,1,5.18-3.38,17.8,17.8,0,0,1,6.5-1.15A19.85,19.85,0,0,1,354.67,481q4.42,2.93,4.42,7.39a9,9,0,0,1-4.07,7.49,16.67,16.67,0,0,1-10.2,3,15.6,15.6,0,0,1-2.82-.24,13.73,13.73,0,0,1-2.51-.72,21.4,21.4,0,0,0,5.15,2.62,16.37,16.37,0,0,0,5.22.85,12.67,12.67,0,0,0,6-1.45,13.3,13.3,0,0,0,4.7-4.21l1,12.76Zm22.61-.85L361,508.85l6.41-3.66-.52-32.13-5.78-1L383,465.85l-5.1,39.56,6.3,2.3Zm7.4-18.86a5.57,5.57,0,0,0,2,1.57,6.11,6.11,0,0,0,2.57.51,6.28,6.28,0,0,0,4.31-1.56,4.92,4.92,0,0,0,1.76-3.83,4.59,4.59,0,0,0-.28-1.62,3.54,3.54,0,0,0-.87-1.29,20.28,20.28,0,0,0-5.75,2.5,12.17,12.17,0,0,0-3.69,3.73Zm26,4.36a15,15,0,0,1-.59,4.28,13.31,13.31,0,0,1-1.76,3.72,16.67,16.67,0,0,1-6,5.42,17.4,17.4,0,0,1-19.46-2.25,14,14,0,0,1-4.57-10.72,14.77,14.77,0,0,1,4.66-11.25,16.85,16.85,0,0,1,12-4.37,15.66,15.66,0,0,1,11.35,4.25,14.54,14.54,0,0,1,4.4,10.93Zm-134.18,43-3,19.4-1.15-7.94a29.28,29.28,0,0,1-8.93,7.32,21.94,21.94,0,0,1-10.19,2.52,16.78,16.78,0,0,1-6.79-1.44,18.4,18.4,0,0,1-5.94-4.18,22.83,22.83,0,0,1-4.86-7.14,20.48,20.48,0,0,1-1.69-8.1,22.58,22.58,0,0,1,2.43-10.47,20.37,20.37,0,0,1,6.9-7.73,22.62,22.62,0,0,1,6.45-3,27.05,27.05,0,0,1,7.47-1,19.88,19.88,0,0,1,6.82,1.15,19.09,19.09,0,0,1,5.93,3.5l1.62-4.65,2.85,15.3a12.84,12.84,0,0,0-4.36-4.06,11.07,11.07,0,0,0-5.43-1.38,7.47,7.47,0,0,0-5.4,2,6.88,6.88,0,0,0-2,5.19,7.38,7.38,0,0,0,2.55,5.71,9.12,9.12,0,0,0,6.37,2.31,16,16,0,0,0,4.9-.82,30.11,30.11,0,0,0,5.48-2.5Zm17.38-2.63a5.78,5.78,0,0,0-1.06,1.79,6.69,6.69,0,0,0-.33,2.2,5.74,5.74,0,0,0,1.6,4.13,5.29,5.29,0,0,0,4,1.66,4.66,4.66,0,0,0,1.74-.35,8,8,0,0,0,1.81-1,27.11,27.11,0,0,0-3.73-5.41,12.16,12.16,0,0,0-4-3Zm19.56-5.84-4.1,1.87.84,23.44,3.21,2.46L308,557.06l2.1-8.53a19.18,19.18,0,0,1-5.95,6.37,13.3,13.3,0,0,1-7.34,2.16,10.06,10.06,0,0,1-8-3.9,14.59,14.59,0,0,1-3.25-9.67q0-7.34,3.49-12.09a10.57,10.57,0,0,1,8.81-4.74,12.2,12.2,0,0,1,7.09,2.11,16.23,16.23,0,0,1,5.16,6.3l-1.77-8.63,12,1.31Zm35.2,29.6-4.18-4.7a23.19,23.19,0,0,1-6.15,3.54,18.4,18.4,0,0,1-6.51,1.15,11.69,11.69,0,0,1-8.49-3.07,10.88,10.88,0,0,1-3.19-8.22,29.38,29.38,0,0,1,.27-3.66c.17-1.41.47-3.24.88-5.48l-3.24.39-3,5.09-1-17,3.83,3.82,5.34-.16q.76-2.78,1.57-5.35t1.75-5l-7.15-2.75,24.48-1.09-6.94,4.36c-.37,1.72-.72,3.34-1,4.88s-.57,3-.79,4.45l6.4-.28,4.36-5.37-.7,15.78-4-4.58-7,1c-.19,1.51-.33,2.88-.42,4.11s-.14,2.3-.14,3.22a7.79,7.79,0,0,0,1,4.47,3.63,3.63,0,0,0,3.19,1.37,9,9,0,0,0,4.39-1.26,17.38,17.38,0,0,0,4.39-3.61l2.05,14Z" transform="translate(-176.37 -286.6)"/><path class="b" d="M205.22,381.72c35.55,1.52,57.21,17.8,80.06,38.73,25,22.9,54.66,28.6,60.7,23.55,6.13-12.58,8.24-25.35,6.83-36.41-6.39-9.39-22.67-3-51.62-19-33.77-18.71-61.23-17.58-96-6.88Z" transform="translate(-176.37 -286.6)"/><path class="a" d="M224.9,352.75,250,346.26l0-.84-39.21-1.17,39.47-1.87q.09-.93.22-1.92l-31.69-8.06,32,5.48a80.9,80.9,0,0,1,3.37-14.13L241.39,286.6l35.48,19.71c14.1-2.56,29.29-1.47,44.44,3l31.19-11.6-15.78,30a71.31,71.31,0,0,1,2,14.58l21.8-2.48-21.74,5.31q0,.85,0,1.67l38.9-.25-39,3c0,.77-.1,1.51-.16,2.2l34.69,4-35-1.79a19.33,19.33,0,0,1-.61,2.89c-1,3.14-10.93,10.6-18.19,13.23q-1.06.38-2.14.72c1.45,6.1,3.91,16.08,7,27.22a103.09,103.09,0,0,1-23.12-9.51,115.84,115.84,0,0,0-32.4-12.52c.32-2.32.57-4.35.77-6-6.4-3.49-18.06-13.27-19.33-17.57a14.72,14.72,0,0,1-.32-3.57l-25,3.79Zm27.63,94c-29.81-6.49-58.32-25.76-73.68-68.59,5.71,4.41,28.45,19.68,33.08,22.05a31.47,31.47,0,0,0-9.37,3.31c11.66,22.7,34.51,34.52,51.47,38.39,2.78-9.12,6.18-21,8.9-32.87.47-2.06.92-4.12,1.34-6.16a245.48,245.48,0,0,1,21,17.58c20.33,18.63,43.75,25.87,55,25.21,3.44,8.73,6,14.54,6,14.54l7.32,4.79H310.33s12.8-14.57-13-20.12c-24.08-5.19-17.09,19.85-17.09,19.85H233.7L248.86,458s1.51-4.39,3.67-11.28Zm35.2-100.31a17.83,17.83,0,0,1-9,3,16.5,16.5,0,0,0,1.29-6.76,14.44,14.44,0,0,0-.74-3.94,60.9,60.9,0,0,1,8.44,7.74Zm-14.09,2.12c-6.22-2.36-9.82-9.41-7-17.53a38.94,38.94,0,0,1,7.61,4.05,17.4,17.4,0,0,0-1.9,8.12,15.14,15.14,0,0,0,1.28,5.35Zm29-2.12a17.82,17.82,0,0,0,9,3,16.52,16.52,0,0,1-1.29-6.76,14.47,14.47,0,0,1,.74-3.94,60.9,60.9,0,0,0-8.43,7.75Zm14.08,2.12c6.22-2.36,9.81-9.41,7-17.53a38.89,38.89,0,0,0-7.61,4.05,17.39,17.39,0,0,1,1.9,8.12,15.14,15.14,0,0,1-1.28,5.35Z" transform="translate(-176.37 -286.6)"/><path class="a" d="M267.46,384.49a6.19,6.19,0,0,1,2.08-.36,5.8,5.8,0,0,1,5.94,5.66,5.4,5.4,0,0,1,0,.64,5.32,5.32,0,0,1,2.36,4.39,5.55,5.55,0,0,1-5.68,5.41,5.89,5.89,0,0,1-2.54-.57,8.1,8.1,0,0,0-2.81,4.7c-.92,5.08-.44,13.14-.55,13.23S251.5,414.23,248.58,406c-3.66-10.31,5.44-15,8.92-16.36a5.06,5.06,0,0,1-.1-1,5.82,5.82,0,0,1,6.07-5.53,6.4,6.4,0,0,1,4,1.36Z" transform="translate(-176.37 -286.6)"/><path class="a" d="M316,400a17.57,17.57,0,0,0,4.27-7.19c1.19-4.72-3-11.82-3-11.82s16.42.6,19.53,14.3c1.56,6.9-4.66,12.78-8.39,15.6a6,6,0,0,1,.12,1.18,5.94,5.94,0,0,1-9.53,4.74,6.21,6.21,0,0,1-8.38-3.47h0a6.27,6.27,0,0,1-.37-2.13v-.1a6.71,6.71,0,0,1-2.8-3.52,6.28,6.28,0,0,1,3.59-8.12,5.88,5.88,0,0,1,5,.53Z" transform="translate(-176.37 -286.6)"/></svg>